<?xml version="1.0" standalone="no"?>
<!DOCTYPE svg PUBLIC "-//W3C//DTD SVG 20010904//EN"
 "http://www.w3.org/TR/2001/REC-SVG-20010904/DTD/svg10.dtd">
<svg version="1.0" xmlns="http://www.w3.org/2000/svg"
 width="512.000000pt" height="512.000000pt" viewBox="0 0 512.000000 512.000000"
 preserveAspectRatio="xMidYMid meet">
<metadata>
Created by potrace 1.11, written by Peter Selinger 2001-2013
</metadata>
<g transform="translate(0.000000,512.000000) scale(0.100000,-0.100000)"
fill="#000000" stroke="none">
<path d="M2320 5109 c-491 -47 -981 -246 -1366 -557 -599 -482 -954 -1224
-954 -1992 0 -577 204 -1155 568 -1606 482 -599 1224 -954 1992 -954 577 0
1155 204 1606 568 599 482 954 1224 954 1992 0 577 -204 1155 -568 1606 -433
538 -1071 879 -1767 944 -125 11 -340 11 -465 -1z m-54 -847 c-3 -9 -26 -62
-50 -117 l-44 -100 -73 -7 c-151 -15 -293 -120 -362 -265 l-32 -68 -6 -350
c-7 -381 -11 -410 -70 -529 -40 -81 -88 -143 -163 -214 l-64 -59 41 -31 c62
-48 143 -149 181 -227 65 -130 68 -154 75 -541 l6 -350 37 -75 c60 -121 169
-211 293 -243 33 -9 100 -16 151 -16 l92 0 -52 -117 -53 -118 -44 3 c-68 4
-221 48 -305 87 -101 46 -163 94 -222 168 -62 79 -84 119 -118 209 l-28 73 -6
355 c-6 298 -9 362 -24 400 -27 71 -61 122 -114 172 -88 83 -180 117 -338 127
l-101 6 50 116 49 116 69 6 c164 14 316 132 380 295 21 54 23 76 29 412 6 332
8 359 29 420 74 216 260 395 471 454 78 21 93 23 213 25 99 1 108 -1 103 -17z
m849 -11 c164 -42 273 -97 356 -180 74 -74 137 -175 170 -271 21 -61 23 -88
29 -420 6 -338 7 -358 29 -413 13 -33 42 -82 65 -110 89 -110 206 -163 383
-175 l101 -7 -47 -105 c-25 -58 -50 -111 -54 -118 -5 -6 -28 -12 -52 -12 -135
0 -301 -105 -365 -231 -53 -102 -53 -104 -60 -479 -8 -385 -9 -391 -70 -512
-86 -169 -235 -297 -415 -355 -63 -20 -108 -27 -209 -31 -149 -6 -140 -22 -72
133 l44 100 62 7 c166 19 302 115 373 266 l32 67 6 350 c7 386 10 410 75 540
38 78 119 179 182 227 l41 32 -64 58 c-74 68 -123 132 -164 214 -59 119 -63
148 -70 530 l-6 350 -37 75 c-48 98 -119 169 -216 216 -71 36 -80 37 -197 41
l-123 4 52 119 c60 140 45 134 221 90z"/>
</g>
</svg>
